<svg xmlns="http://www.w3.org/2000/svg" width="124" height="69.75" viewBox="0 0 124 69.75">
  <path id="Union_2" data-name="Union 2" d="M-120.732,190.75V161.817h-.14l-15.02,28.932h-6.148l-14.809-28.932h-.14V190.75h-8.383v-36h13.762l12.855,25.576h.209l12.715-25.576H-112v36Zm-64.738,0v-36h8.8v36Zm-19.792,0L-226.988,172.7h-.21V190.75H-236v-36h8.8v15.559h.21l20.678-15.559h11.876l-23.123,16.628,24.66,19.372ZM-119.073,151l-15.465-23.009h-.089V151h-5.568V121h7.382l15.156,22.288h.089V121H-112v30Zm-32.732,0V121h5.567v30Zm-19.875,0-12.285-30h6.408l8.531,22.67,8.791-22.67h6.008l-12.637,30Zm-34.856,0V121h20.725v4.83h-15.157v7.377h14.362v4.83h-14.362v8.136h15.952V151Zm-10.021,0-13.567-14.746h-.31V151H-236V121h5.567v12.712h.265L-217.219,121h7.512l-14.628,13.856,15.6,16.144Z" transform="translate(236 -121)" fill="#151515"/>
</svg>
