<svg xmlns="http://www.w3.org/2000/svg" width="100" height="60" viewBox="0 0 100 60">
  <path id="Union_1" data-name="Union 1" d="M93.362,60V35.915h-.11L81.361,60H76.494L64.6,35.915h-.111V60H57.854V31h10.62L78.927,51.316,89.492,31H100V60ZM39.934,60V31H46.9V60Zm-15.6,0L7.357,45.746H6.969V60H0V31H6.969V43.288H7.3L23.506,31h9.4L14.6,44.394,34.126,60Zm69.78-31L81.243,6.758h-.074V29H76.535V0h6.143L95.292,21.545h.074V0H100V29ZM67.672,29V0h4.634V29ZM51.931,29,41.707,0h5.333l7.1,21.914L61.457,0h5L55.94,29ZM23.722,29V0H40.971V4.669H28.356V11.8H40.309v4.67H28.356v7.864H41.633V29Zm-7.54,0L4.891,14.746H4.634V29H0V0H4.634V12.288h.22L15.631,0h6.252L9.709,13.394,22.693,29Z" fill="#151515"/>
</svg>
